<?xml version="1.0" encoding="UTF-8" standalone="no"?>
<!-- This is a Stata 18.0 generated SVG file (http://www.stata.com) -->

<svg version="1.1" width="7.500in" height="4.500in" viewBox="0 0 5400 3240" xmlns="http://www.w3.org/2000/svg" xmlns:xlink="http://www.w3.org/1999/xlink">
	<desc>Stata Graph - Graph</desc>
	<rect x="0" y="0" width="5400" height="3240" style="fill:#FFFFFF;stroke:none"/>
	<rect x="0.00" y="0.00" width="5400.00" height="3240.00" style="fill:#FFFFFF"/>
	<rect x="3.24" y="3.24" width="5393.52" height="3233.52" style="fill:none;stroke:#FFFFFF;stroke-width:6.48"/>
	<rect x="557.72" y="113.40" width="2829.43" height="2653.26" style="fill:#FFFFFF"/>
	<rect x="560.96" y="116.64" width="2822.95" height="2646.78" style="fill:none;stroke:#FFFFFF;stroke-width:6.48"/>
	<line x1="557.72" y1="2766.66" x2="622.52" y2="2766.66" style="stroke:#F0F0F0;stroke-width:9.72"/>
	<line x1="654.92" y1="2766.66" x2="719.72" y2="2766.66" style="stroke:#F0F0F0;stroke-width:9.72"/>
	<line x1="752.12" y1="2766.66" x2="816.92" y2="2766.66" style="stroke:#F0F0F0;stroke-width:9.72"/>
	<line x1="849.32" y1="2766.66" x2="914.12" y2="2766.66" style="stroke:#F0F0F0;stroke-width:9.72"/>
	<line x1="946.52" y1="2766.66" x2="1011.32" y2="2766.66" style="stroke:#F0F0F0;stroke-width:9.72"/>
	<line x1="1043.72" y1="2766.66" x2="1108.52" y2="2766.66" style="stroke:#F0F0F0;stroke-width:9.72"/>
	<line x1="1140.92" y1="2766.66" x2="1205.72" y2="2766.66" style="stroke:#F0F0F0;stroke-width:9.72"/>
	<line x1="1238.12" y1="2766.66" x2="1302.92" y2="2766.66" style="stroke:#F0F0F0;stroke-width:9.72"/>
	<line x1="1335.32" y1="2766.66" x2="1400.12" y2="2766.66" style="stroke:#F0F0F0;stroke-width:9.72"/>
	<line x1="1432.52" y1="2766.66" x2="1497.32" y2="2766.66" style="stroke:#F0F0F0;stroke-width:9.72"/>
	<line x1="1529.72" y1="2766.66" x2="1594.52" y2="2766.66" style="stroke:#F0F0F0;stroke-width:9.72"/>
	<line x1="1626.92" y1="2766.66" x2="1691.72" y2="2766.66" style="stroke:#F0F0F0;stroke-width:9.72"/>
	<line x1="1724.12" y1="2766.66" x2="1788.92" y2="2766.66" style="stroke:#F0F0F0;stroke-width:9.72"/>
	<line x1="1821.32" y1="2766.66" x2="1886.12" y2="2766.66" style="stroke:#F0F0F0;stroke-width:9.72"/>
	<line x1="1918.52" y1="2766.66" x2="1983.32" y2="2766.66" style="stroke:#F0F0F0;stroke-width:9.72"/>
	<line x1="2015.72" y1="2766.66" x2="2080.52" y2="2766.66" style="stroke:#F0F0F0;stroke-width:9.72"/>
	<line x1="2112.92" y1="2766.66" x2="2177.72" y2="2766.66" style="stroke:#F0F0F0;stroke-width:9.72"/>
	<line x1="2210.12" y1="2766.66" x2="2274.92" y2="2766.66" style="stroke:#F0F0F0;stroke-width:9.72"/>
	<line x1="2307.32" y1="2766.66" x2="2372.12" y2="2766.66" style="stroke:#F0F0F0;stroke-width:9.72"/>
	<line x1="2404.52" y1="2766.66" x2="2469.32" y2="2766.66" style="stroke:#F0F0F0;stroke-width:9.72"/>
	<line x1="2501.72" y1="2766.66" x2="2566.52" y2="2766.66" style="stroke:#F0F0F0;stroke-width:9.72"/>
	<line x1="2598.92" y1="2766.66" x2="2663.72" y2="2766.66" style="stroke:#F0F0F0;stroke-width:9.72"/>
	<line x1="2696.12" y1="2766.66" x2="2760.92" y2="2766.66" style="stroke:#F0F0F0;stroke-width:9.72"/>
	<line x1="2793.32" y1="2766.66" x2="2858.12" y2="2766.66" style="stroke:#F0F0F0;stroke-width:9.72"/>
	<line x1="2890.52" y1="2766.66" x2="2955.32" y2="2766.66" style="stroke:#F0F0F0;stroke-width:9.72"/>
	<line x1="2987.72" y1="2766.66" x2="3052.52" y2="2766.66" style="stroke:#F0F0F0;stroke-width:9.72"/>
	<line x1="3084.92" y1="2766.66" x2="3149.72" y2="2766.66" style="stroke:#F0F0F0;stroke-width:9.72"/>
	<line x1="3182.12" y1="2766.66" x2="3246.92" y2="2766.66" style="stroke:#F0F0F0;stroke-width:9.72"/>
	<line x1="3279.32" y1="2766.66" x2="3344.12" y2="2766.66" style="stroke:#F0F0F0;stroke-width:9.72"/>
	<line x1="3376.52" y1="2766.66" x2="3387.15" y2="2766.66" style="stroke:#F0F0F0;stroke-width:9.72"/>
	<line x1="557.72" y1="2133.51" x2="622.52" y2="2133.51" style="stroke:#F0F0F0;stroke-width:9.72"/>
	<line x1="654.92" y1="2133.51" x2="719.72" y2="2133.51" style="stroke:#F0F0F0;stroke-width:9.72"/>
	<line x1="752.12" y1="2133.51" x2="816.92" y2="2133.51" style="stroke:#F0F0F0;stroke-width:9.72"/>
	<line x1="849.32" y1="2133.51" x2="914.12" y2="2133.51" style="stroke:#F0F0F0;stroke-width:9.72"/>
	<line x1="946.52" y1="2133.51" x2="1011.32" y2="2133.51" style="stroke:#F0F0F0;stroke-width:9.72"/>
	<line x1="1043.72" y1="2133.51" x2="1108.52" y2="2133.51" style="stroke:#F0F0F0;stroke-width:9.72"/>
	<line x1="1140.92" y1="2133.51" x2="1205.72" y2="2133.51" style="stroke:#F0F0F0;stroke-width:9.72"/>
	<line x1="1238.12" y1="2133.51" x2="1302.92" y2="2133.51" style="stroke:#F0F0F0;stroke-width:9.72"/>
	<line x1="1335.32" y1="2133.51" x2="1400.12" y2="2133.51" style="stroke:#F0F0F0;stroke-width:9.72"/>
	<line x1="1432.52" y1="2133.51" x2="1497.32" y2="2133.51" style="stroke:#F0F0F0;stroke-width:9.72"/>
	<line x1="1529.72" y1="2133.51" x2="1594.52" y2="2133.51" style="stroke:#F0F0F0;stroke-width:9.72"/>
	<line x1="1626.92" y1="2133.51" x2="1691.72" y2="2133.51" style="stroke:#F0F0F0;stroke-width:9.72"/>
	<line x1="1724.12" y1="2133.51" x2="1788.92" y2="2133.51" style="stroke:#F0F0F0;stroke-width:9.72"/>
	<line x1="1821.32" y1="2133.51" x2="1886.12" y2="2133.51" style="stroke:#F0F0F0;stroke-width:9.72"/>
	<line x1="1918.52" y1="2133.51" x2="1983.32" y2="2133.51" style="stroke:#F0F0F0;stroke-width:9.72"/>
	<line x1="2015.72" y1="2133.51" x2="2080.52" y2="2133.51" style="stroke:#F0F0F0;stroke-width:9.72"/>
	<line x1="2112.92" y1="2133.51" x2="2177.72" y2="2133.51" style="stroke:#F0F0F0;stroke-width:9.72"/>
	<line x1="2210.12" y1="2133.51" x2="2274.92" y2="2133.51" style="stroke:#F0F0F0;stroke-width:9.72"/>
	<line x1="2307.32" y1="2133.51" x2="2372.12" y2="2133.51" style="stroke:#F0F0F0;stroke-width:9.72"/>
	<line x1="2404.52" y1="2133.51" x2="2469.32" y2="2133.51" style="stroke:#F0F0F0;stroke-width:9.72"/>
	<line x1="2501.72" y1="2133.51" x2="2566.52" y2="2133.51" style="stroke:#F0F0F0;stroke-width:9.72"/>
	<line x1="2598.92" y1="2133.51" x2="2663.72" y2="2133.51" style="stroke:#F0F0F0;stroke-width:9.72"/>
	<line x1="2696.12" y1="2133.51" x2="2760.92" y2="2133.51" style="stroke:#F0F0F0;stroke-width:9.72"/>
	<line x1="2793.32" y1="2133.51" x2="2858.12" y2="2133.51" style="stroke:#F0F0F0;stroke-width:9.72"/>
	<line x1="2890.52" y1="2133.51" x2="2955.32" y2="2133.51" style="stroke:#F0F0F0;stroke-width:9.72"/>
	<line x1="2987.72" y1="2133.51" x2="3052.52" y2="2133.51" style="stroke:#F0F0F0;stroke-width:9.72"/>
	<line x1="3084.92" y1="2133.51" x2="3149.72" y2="2133.51" style="stroke:#F0F0F0;stroke-width:9.72"/>
	<line x1="3182.12" y1="2133.51" x2="3246.92" y2="2133.51" style="stroke:#F0F0F0;stroke-width:9.72"/>
	<line x1="3279.32" y1="2133.51" x2="3344.12" y2="2133.51" style="stroke:#F0F0F0;stroke-width:9.72"/>
	<line x1="3376.52" y1="2133.51" x2="3387.15" y2="2133.51" style="stroke:#F0F0F0;stroke-width:9.72"/>
	<line x1="557.72" y1="1500.36" x2="622.52" y2="1500.36" style="stroke:#F0F0F0;stroke-width:9.72"/>
	<line x1="654.92" y1="1500.36" x2="719.72" y2="1500.36" style="stroke:#F0F0F0;stroke-width:9.72"/>
	<line x1="752.12" y1="1500.36" x2="816.92" y2="1500.36" style="stroke:#F0F0F0;stroke-width:9.72"/>
	<line x1="849.32" y1="1500.36" x2="914.12" y2="1500.36" style="stroke:#F0F0F0;stroke-width:9.72"/>
	<line x1="946.52" y1="1500.36" x2="1011.32" y2="1500.36" style="stroke:#F0F0F0;stroke-width:9.72"/>
	<line x1="1043.72" y1="1500.36" x2="1108.52" y2="1500.36" style="stroke:#F0F0F0;stroke-width:9.72"/>
	<line x1="1140.92" y1="1500.36" x2="1205.72" y2="1500.36" style="stroke:#F0F0F0;stroke-width:9.72"/>
	<line x1="1238.12" y1="1500.36" x2="1302.92" y2="1500.36" style="stroke:#F0F0F0;stroke-width:9.72"/>
	<line x1="1335.32" y1="1500.36" x2="1400.12" y2="1500.36" style="stroke:#F0F0F0;stroke-width:9.72"/>
	<line x1="1432.52" y1="1500.36" x2="1497.32" y2="1500.36" style="stroke:#F0F0F0;stroke-width:9.72"/>
	<line x1="1529.72" y1="1500.36" x2="1594.52" y2="1500.36" style="stroke:#F0F0F0;stroke-width:9.72"/>
	<line x1="1626.92" y1="1500.36" x2="1691.72" y2="1500.36" style="stroke:#F0F0F0;stroke-width:9.72"/>
	<line x1="1724.12" y1="1500.36" x2="1788.92" y2="1500.36" style="stroke:#F0F0F0;stroke-width:9.72"/>
	<line x1="1821.32" y1="1500.36" x2="1886.12" y2="1500.36" style="stroke:#F0F0F0;stroke-width:9.72"/>
	<line x1="1918.52" y1="1500.36" x2="1983.32" y2="1500.36" style="stroke:#F0F0F0;stroke-width:9.72"/>
	<line x1="2015.72" y1="1500.36" x2="2080.52" y2="1500.36" style="stroke:#F0F0F0;stroke-width:9.72"/>
	<line x1="2112.92" y1="1500.36" x2="2177.72" y2="1500.36" style="stroke:#F0F0F0;stroke-width:9.72"/>
	<line x1="2210.12" y1="1500.36" x2="2274.92" y2="1500.36" style="stroke:#F0F0F0;stroke-width:9.72"/>
	<line x1="2307.32" y1="1500.36" x2="2372.12" y2="1500.36" style="stroke:#F0F0F0;stroke-width:9.72"/>
	<line x1="2404.52" y1="1500.36" x2="2469.32" y2="1500.36" style="stroke:#F0F0F0;stroke-width:9.72"/>
	<line x1="2501.72" y1="1500.36" x2="2566.52" y2="1500.36" style="stroke:#F0F0F0;stroke-width:9.72"/>
	<line x1="2598.92" y1="1500.36" x2="2663.72" y2="1500.36" style="stroke:#F0F0F0;stroke-width:9.72"/>
	<line x1="2696.12" y1="1500.36" x2="2760.92" y2="1500.36" style="stroke:#F0F0F0;stroke-width:9.72"/>
	<line x1="2793.32" y1="1500.36" x2="2858.12" y2="1500.36" style="stroke:#F0F0F0;stroke-width:9.72"/>
	<line x1="2890.52" y1="1500.36" x2="2955.32" y2="1500.36" style="stroke:#F0F0F0;stroke-width:9.72"/>
	<line x1="2987.72" y1="1500.36" x2="3052.52" y2="1500.36" style="stroke:#F0F0F0;stroke-width:9.72"/>
	<line x1="3084.92" y1="1500.36" x2="3149.72" y2="1500.36" style="stroke:#F0F0F0;stroke-width:9.72"/>
	<line x1="3182.12" y1="1500.36" x2="3246.92" y2="1500.36" style="stroke:#F0F0F0;stroke-width:9.72"/>
	<line x1="3279.32" y1="1500.36" x2="3344.12" y2="1500.36" style="stroke:#F0F0F0;stroke-width:9.72"/>
	<line x1="3376.52" y1="1500.36" x2="3387.15" y2="1500.36" style="stroke:#F0F0F0;stroke-width:9.72"/>
	<line x1="557.72" y1="867.21" x2="622.52" y2="867.21" style="stroke:#F0F0F0;stroke-width:9.72"/>
	<line x1="654.92" y1="867.21" x2="719.72" y2="867.21" style="stroke:#F0F0F0;stroke-width:9.72"/>
	<line x1="752.12" y1="867.21" x2="816.92" y2="867.21" style="stroke:#F0F0F0;stroke-width:9.72"/>
	<line x1="849.32" y1="867.21" x2="914.12" y2="867.21" style="stroke:#F0F0F0;stroke-width:9.72"/>
	<line x1="946.52" y1="867.21" x2="1011.32" y2="867.21" style="stroke:#F0F0F0;stroke-width:9.72"/>
	<line x1="1043.72" y1="867.21" x2="1108.52" y2="867.21" style="stroke:#F0F0F0;stroke-width:9.72"/>
	<line x1="1140.92" y1="867.21" x2="1205.72" y2="867.21" style="stroke:#F0F0F0;stroke-width:9.72"/>
	<line x1="1238.12" y1="867.21" x2="1302.92" y2="867.21" style="stroke:#F0F0F0;stroke-width:9.72"/>
	<line x1="1335.32" y1="867.21" x2="1400.12" y2="867.21" style="stroke:#F0F0F0;stroke-width:9.72"/>
	<line x1="1432.52" y1="867.21" x2="1497.32" y2="867.21" style="stroke:#F0F0F0;stroke-width:9.72"/>
	<line x1="1529.72" y1="867.21" x2="1594.52" y2="867.21" style="stroke:#F0F0F0;stroke-width:9.72"/>
	<line x1="1626.92" y1="867.21" x2="1691.72" y2="867.21" style="stroke:#F0F0F0;stroke-width:9.72"/>
	<line x1="1724.12" y1="867.21" x2="1788.92" y2="867.21" style="stroke:#F0F0F0;stroke-width:9.72"/>
	<line x1="1821.32" y1="867.21" x2="1886.12" y2="867.21" style="stroke:#F0F0F0;stroke-width:9.72"/>
	<line x1="1918.52" y1="867.21" x2="1983.32" y2="867.21" style="stroke:#F0F0F0;stroke-width:9.72"/>
	<line x1="2015.72" y1="867.21" x2="2080.52" y2="867.21" style="stroke:#F0F0F0;stroke-width:9.72"/>
	<line x1="2112.92" y1="867.21" x2="2177.72" y2="867.21" style="stroke:#F0F0F0;stroke-width:9.72"/>
	<line x1="2210.12" y1="867.21" x2="2274.92" y2="867.21" style="stroke:#F0F0F0;stroke-width:9.72"/>
	<line x1="2307.32" y1="867.21" x2="2372.12" y2="867.21" style="stroke:#F0F0F0;stroke-width:9.72"/>
	<line x1="2404.52" y1="867.21" x2="2469.32" y2="867.21" style="stroke:#F0F0F0;stroke-width:9.72"/>
	<line x1="2501.72" y1="867.21" x2="2566.52" y2="867.21" style="stroke:#F0F0F0;stroke-width:9.72"/>
	<line x1="2598.92" y1="867.21" x2="2663.72" y2="867.21" style="stroke:#F0F0F0;stroke-width:9.72"/>
	<line x1="2696.12" y1="867.21" x2="2760.92" y2="867.21" style="stroke:#F0F0F0;stroke-width:9.72"/>
	<line x1="2793.32" y1="867.21" x2="2858.12" y2="867.21" style="stroke:#F0F0F0;stroke-width:9.72"/>
	<line x1="2890.52" y1="867.21" x2="2955.32" y2="867.21" style="stroke:#F0F0F0;stroke-width:9.72"/>
	<line x1="2987.72" y1="867.21" x2="3052.52" y2="867.21" style="stroke:#F0F0F0;stroke-width:9.72"/>
	<line x1="3084.92" y1="867.21" x2="3149.72" y2="867.21" style="stroke:#F0F0F0;stroke-width:9.72"/>
	<line x1="3182.12" y1="867.21" x2="3246.92" y2="867.21" style="stroke:#F0F0F0;stroke-width:9.72"/>
	<line x1="3279.32" y1="867.21" x2="3344.12" y2="867.21" style="stroke:#F0F0F0;stroke-width:9.72"/>
	<line x1="3376.52" y1="867.21" x2="3387.15" y2="867.21" style="stroke:#F0F0F0;stroke-width:9.72"/>
	<line x1="557.72" y1="234.06" x2="622.52" y2="234.06" style="stroke:#F0F0F0;stroke-width:9.72"/>
	<line x1="654.92" y1="234.06" x2="719.72" y2="234.06" style="stroke:#F0F0F0;stroke-width:9.72"/>
	<line x1="752.12" y1="234.06" x2="816.92" y2="234.06" style="stroke:#F0F0F0;stroke-width:9.72"/>
	<line x1="849.32" y1="234.06" x2="914.12" y2="234.06" style="stroke:#F0F0F0;stroke-width:9.72"/>
	<line x1="946.52" y1="234.06" x2="1011.32" y2="234.06" style="stroke:#F0F0F0;stroke-width:9.72"/>
	<line x1="1043.72" y1="234.06" x2="1108.52" y2="234.06" style="stroke:#F0F0F0;stroke-width:9.72"/>
	<line x1="1140.92" y1="234.06" x2="1205.72" y2="234.06" style="stroke:#F0F0F0;stroke-width:9.72"/>
	<line x1="1238.12" y1="234.06" x2="1302.92" y2="234.06" style="stroke:#F0F0F0;stroke-width:9.72"/>
	<line x1="1335.32" y1="234.06" x2="1400.12" y2="234.06" style="stroke:#F0F0F0;stroke-width:9.72"/>
	<line x1="1432.52" y1="234.06" x2="1497.32" y2="234.06" style="stroke:#F0F0F0;stroke-width:9.72"/>
	<line x1="1529.72" y1="234.06" x2="1594.52" y2="234.06" style="stroke:#F0F0F0;stroke-width:9.72"/>
	<line x1="1626.92" y1="234.06" x2="1691.72" y2="234.06" style="stroke:#F0F0F0;stroke-width:9.72"/>
	<line x1="1724.12" y1="234.06" x2="1788.92" y2="234.06" style="stroke:#F0F0F0;stroke-width:9.72"/>
	<line x1="1821.32" y1="234.06" x2="1886.12" y2="234.06" style="stroke:#F0F0F0;stroke-width:9.72"/>
	<line x1="1918.52" y1="234.06" x2="1983.32" y2="234.06" style="stroke:#F0F0F0;stroke-width:9.72"/>
	<line x1="2015.72" y1="234.06" x2="2080.52" y2="234.06" style="stroke:#F0F0F0;stroke-width:9.72"/>
	<line x1="2112.92" y1="234.06" x2="2177.72" y2="234.06" style="stroke:#F0F0F0;stroke-width:9.72"/>
	<line x1="2210.12" y1="234.06" x2="2274.92" y2="234.06" style="stroke:#F0F0F0;stroke-width:9.72"/>
	<line x1="2307.32" y1="234.06" x2="2372.12" y2="234.06" style="stroke:#F0F0F0;stroke-width:9.72"/>
	<line x1="2404.52" y1="234.06" x2="2469.32" y2="234.06" style="stroke:#F0F0F0;stroke-width:9.72"/>
	<line x1="2501.72" y1="234.06" x2="2566.52" y2="234.06" style="stroke:#F0F0F0;stroke-width:9.72"/>
	<line x1="2598.92" y1="234.06" x2="2663.72" y2="234.06" style="stroke:#F0F0F0;stroke-width:9.72"/>
	<line x1="2696.12" y1="234.06" x2="2760.92" y2="234.06" style="stroke:#F0F0F0;stroke-width:9.72"/>
	<line x1="2793.32" y1="234.06" x2="2858.12" y2="234.06" style="stroke:#F0F0F0;stroke-width:9.72"/>
	<line x1="2890.52" y1="234.06" x2="2955.32" y2="234.06" style="stroke:#F0F0F0;stroke-width:9.72"/>
	<line x1="2987.72" y1="234.06" x2="3052.52" y2="234.06" style="stroke:#F0F0F0;stroke-width:9.72"/>
	<line x1="3084.92" y1="234.06" x2="3149.72" y2="234.06" style="stroke:#F0F0F0;stroke-width:9.72"/>
	<line x1="3182.12" y1="234.06" x2="3246.92" y2="234.06" style="stroke:#F0F0F0;stroke-width:9.72"/>
	<line x1="3279.32" y1="234.06" x2="3344.12" y2="234.06" style="stroke:#F0F0F0;stroke-width:9.72"/>
	<line x1="3376.52" y1="234.06" x2="3387.15" y2="234.06" style="stroke:#F0F0F0;stroke-width:9.72"/>
	<line x1="904.50" y1="2766.66" x2="904.50" y2="2701.86" style="stroke:#F0F0F0;stroke-width:9.72"/>
	<line x1="904.50" y1="2669.46" x2="904.50" y2="2604.66" style="stroke:#F0F0F0;stroke-width:9.72"/>
	<line x1="904.50" y1="2572.26" x2="904.50" y2="2507.46" style="stroke:#F0F0F0;stroke-width:9.72"/>
	<line x1="904.50" y1="2475.06" x2="904.50" y2="2410.26" style="stroke:#F0F0F0;stroke-width:9.72"/>
	<line x1="904.50" y1="2377.86" x2="904.50" y2="2313.06" style="stroke:#F0F0F0;stroke-width:9.72"/>
	<line x1="904.50" y1="2280.66" x2="904.50" y2="2215.86" style="stroke:#F0F0F0;stroke-width:9.72"/>
	<line x1="904.50" y1="2183.46" x2="904.50" y2="2118.66" style="stroke:#F0F0F0;stroke-width:9.72"/>
	<line x1="904.50" y1="2086.26" x2="904.50" y2="2021.46" style="stroke:#F0F0F0;stroke-width:9.72"/>
	<line x1="904.50" y1="1989.06" x2="904.50" y2="1924.26" style="stroke:#F0F0F0;stroke-width:9.72"/>
	<line x1="904.50" y1="1891.86" x2="904.50" y2="1827.06" style="stroke:#F0F0F0;stroke-width:9.72"/>
	<line x1="904.50" y1="1794.66" x2="904.50" y2="1729.86" style="stroke:#F0F0F0;stroke-width:9.72"/>
	<line x1="904.50" y1="1697.46" x2="904.50" y2="1632.66" style="stroke:#F0F0F0;stroke-width:9.72"/>
	<line x1="904.50" y1="1600.26" x2="904.50" y2="1535.46" style="stroke:#F0F0F0;stroke-width:9.72"/>
	<line x1="904.50" y1="1503.06" x2="904.50" y2="1438.26" style="stroke:#F0F0F0;stroke-width:9.72"/>
	<line x1="904.50" y1="1405.86" x2="904.50" y2="1341.06" style="stroke:#F0F0F0;stroke-width:9.72"/>
	<line x1="904.50" y1="1308.66" x2="904.50" y2="1243.86" style="stroke:#F0F0F0;stroke-width:9.72"/>
	<line x1="904.50" y1="1211.46" x2="904.50" y2="1146.66" style="stroke:#F0F0F0;stroke-width:9.72"/>
	<line x1="904.50" y1="1114.26" x2="904.50" y2="1049.46" style="stroke:#F0F0F0;stroke-width:9.72"/>
	<line x1="904.50" y1="1017.06" x2="904.50" y2="952.26" style="stroke:#F0F0F0;stroke-width:9.72"/>
	<line x1="904.50" y1="919.86" x2="904.50" y2="855.06" style="stroke:#F0F0F0;stroke-width:9.72"/>
	<line x1="904.50" y1="822.66" x2="904.50" y2="757.86" style="stroke:#F0F0F0;stroke-width:9.72"/>
	<line x1="904.50" y1="725.46" x2="904.50" y2="660.66" style="stroke:#F0F0F0;stroke-width:9.72"/>
	<line x1="904.50" y1="628.26" x2="904.50" y2="563.46" style="stroke:#F0F0F0;stroke-width:9.72"/>
	<line x1="904.50" y1="531.06" x2="904.50" y2="466.26" style="stroke:#F0F0F0;stroke-width:9.72"/>
	<line x1="904.50" y1="433.86" x2="904.50" y2="369.06" style="stroke:#F0F0F0;stroke-width:9.72"/>
	<line x1="904.50" y1="336.66" x2="904.50" y2="271.86" style="stroke:#F0F0F0;stroke-width:9.72"/>
	<line x1="904.50" y1="239.46" x2="904.50" y2="174.66" style="stroke:#F0F0F0;stroke-width:9.72"/>
	<line x1="904.50" y1="142.26" x2="904.50" y2="113.40" style="stroke:#F0F0F0;stroke-width:9.72"/>
	<line x1="1590.47" y1="2766.66" x2="1590.47" y2="2701.86" style="stroke:#F0F0F0;stroke-width:9.72"/>
	<line x1="1590.47" y1="2669.46" x2="1590.47" y2="2604.66" style="stroke:#F0F0F0;stroke-width:9.72"/>
	<line x1="1590.47" y1="2572.26" x2="1590.47" y2="2507.46" style="stroke:#F0F0F0;stroke-width:9.72"/>
	<line x1="1590.47" y1="2475.06" x2="1590.47" y2="2410.26" style="stroke:#F0F0F0;stroke-width:9.72"/>
	<line x1="1590.47" y1="2377.86" x2="1590.47" y2="2313.06" style="stroke:#F0F0F0;stroke-width:9.72"/>
	<line x1="1590.47" y1="2280.66" x2="1590.47" y2="2215.86" style="stroke:#F0F0F0;stroke-width:9.72"/>
	<line x1="1590.47" y1="2183.46" x2="1590.47" y2="2118.66" style="stroke:#F0F0F0;stroke-width:9.72"/>
	<line x1="1590.47" y1="2086.26" x2="1590.47" y2="2021.46" style="stroke:#F0F0F0;stroke-width:9.72"/>
	<line x1="1590.47" y1="1989.06" x2="1590.47" y2="1924.26" style="stroke:#F0F0F0;stroke-width:9.72"/>
	<line x1="1590.47" y1="1891.86" x2="1590.47" y2="1827.06" style="stroke:#F0F0F0;stroke-width:9.72"/>
	<line x1="1590.47" y1="1794.66" x2="1590.47" y2="1729.86" style="stroke:#F0F0F0;stroke-width:9.72"/>
	<line x1="1590.47" y1="1697.46" x2="1590.47" y2="1632.66" style="stroke:#F0F0F0;stroke-width:9.72"/>
	<line x1="1590.47" y1="1600.26" x2="1590.47" y2="1535.46" style="stroke:#F0F0F0;stroke-width:9.72"/>
	<line x1="1590.47" y1="1503.06" x2="1590.47" y2="1438.26" style="stroke:#F0F0F0;stroke-width:9.72"/>
	<line x1="1590.47" y1="1405.86" x2="1590.47" y2="1341.06" style="stroke:#F0F0F0;stroke-width:9.72"/>
	<line x1="1590.47" y1="1308.66" x2="1590.47" y2="1243.86" style="stroke:#F0F0F0;stroke-width:9.72"/>
	<line x1="1590.47" y1="1211.46" x2="1590.47" y2="1146.66" style="stroke:#F0F0F0;stroke-width:9.72"/>
	<line x1="1590.47" y1="1114.26" x2="1590.47" y2="1049.46" style="stroke:#F0F0F0;stroke-width:9.72"/>
	<line x1="1590.47" y1="1017.06" x2="1590.47" y2="952.26" style="stroke:#F0F0F0;stroke-width:9.72"/>
	<line x1="1590.47" y1="919.86" x2="1590.47" y2="855.06" style="stroke:#F0F0F0;stroke-width:9.72"/>
	<line x1="1590.47" y1="822.66" x2="1590.47" y2="757.86" style="stroke:#F0F0F0;stroke-width:9.72"/>
	<line x1="1590.47" y1="725.46" x2="1590.47" y2="660.66" style="stroke:#F0F0F0;stroke-width:9.72"/>
	<line x1="1590.47" y1="628.26" x2="1590.47" y2="563.46" style="stroke:#F0F0F0;stroke-width:9.72"/>
	<line x1="1590.47" y1="531.06" x2="1590.47" y2="466.26" style="stroke:#F0F0F0;stroke-width:9.72"/>
	<line x1="1590.47" y1="433.86" x2="1590.47" y2="369.06" style="stroke:#F0F0F0;stroke-width:9.72"/>
	<line x1="1590.47" y1="336.66" x2="1590.47" y2="271.86" style="stroke:#F0F0F0;stroke-width:9.72"/>
	<line x1="1590.47" y1="239.46" x2="1590.47" y2="174.66" style="stroke:#F0F0F0;stroke-width:9.72"/>
	<line x1="1590.47" y1="142.26" x2="1590.47" y2="113.40" style="stroke:#F0F0F0;stroke-width:9.72"/>
	<line x1="2276.27" y1="2766.66" x2="2276.27" y2="2701.86" style="stroke:#F0F0F0;stroke-width:9.72"/>
	<line x1="2276.27" y1="2669.46" x2="2276.27" y2="2604.66" style="stroke:#F0F0F0;stroke-width:9.72"/>
	<line x1="2276.27" y1="2572.26" x2="2276.27" y2="2507.46" style="stroke:#F0F0F0;stroke-width:9.72"/>
	<line x1="2276.27" y1="2475.06" x2="2276.27" y2="2410.26" style="stroke:#F0F0F0;stroke-width:9.72"/>
	<line x1="2276.27" y1="2377.86" x2="2276.27" y2="2313.06" style="stroke:#F0F0F0;stroke-width:9.72"/>
	<line x1="2276.27" y1="2280.66" x2="2276.27" y2="2215.86" style="stroke:#F0F0F0;stroke-width:9.72"/>
	<line x1="2276.27" y1="2183.46" x2="2276.27" y2="2118.66" style="stroke:#F0F0F0;stroke-width:9.72"/>
	<line x1="2276.27" y1="2086.26" x2="2276.27" y2="2021.46" style="stroke:#F0F0F0;stroke-width:9.72"/>
	<line x1="2276.27" y1="1989.06" x2="2276.27" y2="1924.26" style="stroke:#F0F0F0;stroke-width:9.72"/>
	<line x1="2276.27" y1="1891.86" x2="2276.27" y2="1827.06" style="stroke:#F0F0F0;stroke-width:9.72"/>
	<line x1="2276.27" y1="1794.66" x2="2276.27" y2="1729.86" style="stroke:#F0F0F0;stroke-width:9.72"/>
	<line x1="2276.27" y1="1697.46" x2="2276.27" y2="1632.66" style="stroke:#F0F0F0;stroke-width:9.72"/>
	<line x1="2276.27" y1="1600.26" x2="2276.27" y2="1535.46" style="stroke:#F0F0F0;stroke-width:9.72"/>
	<line x1="2276.27" y1="1503.06" x2="2276.27" y2="1438.26" style="stroke:#F0F0F0;stroke-width:9.72"/>
	<line x1="2276.27" y1="1405.86" x2="2276.27" y2="1341.06" style="stroke:#F0F0F0;stroke-width:9.72"/>
	<line x1="2276.27" y1="1308.66" x2="2276.27" y2="1243.86" style="stroke:#F0F0F0;stroke-width:9.72"/>
	<line x1="2276.27" y1="1211.46" x2="2276.27" y2="1146.66" style="stroke:#F0F0F0;stroke-width:9.72"/>
	<line x1="2276.27" y1="1114.26" x2="2276.27" y2="1049.46" style="stroke:#F0F0F0;stroke-width:9.72"/>
	<line x1="2276.27" y1="1017.06" x2="2276.27" y2="952.26" style="stroke:#F0F0F0;stroke-width:9.72"/>
	<line x1="2276.27" y1="919.86" x2="2276.27" y2="855.06" style="stroke:#F0F0F0;stroke-width:9.72"/>
	<line x1="2276.27" y1="822.66" x2="2276.27" y2="757.86" style="stroke:#F0F0F0;stroke-width:9.72"/>
	<line x1="2276.27" y1="725.46" x2="2276.27" y2="660.66" style="stroke:#F0F0F0;stroke-width:9.72"/>
	<line x1="2276.27" y1="628.26" x2="2276.27" y2="563.46" style="stroke:#F0F0F0;stroke-width:9.72"/>
	<line x1="2276.27" y1="531.06" x2="2276.27" y2="466.26" style="stroke:#F0F0F0;stroke-width:9.72"/>
	<line x1="2276.27" y1="433.86" x2="2276.27" y2="369.06" style="stroke:#F0F0F0;stroke-width:9.72"/>
	<line x1="2276.27" y1="336.66" x2="2276.27" y2="271.86" style="stroke:#F0F0F0;stroke-width:9.72"/>
	<line x1="2276.27" y1="239.46" x2="2276.27" y2="174.66" style="stroke:#F0F0F0;stroke-width:9.72"/>
	<line x1="2276.27" y1="142.26" x2="2276.27" y2="113.40" style="stroke:#F0F0F0;stroke-width:9.72"/>
	<line x1="2962.24" y1="2766.66" x2="2962.24" y2="2701.86" style="stroke:#F0F0F0;stroke-width:9.72"/>
	<line x1="2962.24" y1="2669.46" x2="2962.24" y2="2604.66" style="stroke:#F0F0F0;stroke-width:9.72"/>
	<line x1="2962.24" y1="2572.26" x2="2962.24" y2="2507.46" style="stroke:#F0F0F0;stroke-width:9.72"/>
	<line x1="2962.24" y1="2475.06" x2="2962.24" y2="2410.26" style="stroke:#F0F0F0;stroke-width:9.72"/>
	<line x1="2962.24" y1="2377.86" x2="2962.24" y2="2313.06" style="stroke:#F0F0F0;stroke-width:9.72"/>
	<line x1="2962.24" y1="2280.66" x2="2962.24" y2="2215.86" style="stroke:#F0F0F0;stroke-width:9.72"/>
	<line x1="2962.24" y1="2183.46" x2="2962.24" y2="2118.66" style="stroke:#F0F0F0;stroke-width:9.72"/>
	<line x1="2962.24" y1="2086.26" x2="2962.24" y2="2021.46" style="stroke:#F0F0F0;stroke-width:9.72"/>
	<line x1="2962.24" y1="1989.06" x2="2962.24" y2="1924.26" style="stroke:#F0F0F0;stroke-width:9.72"/>
	<line x1="2962.24" y1="1891.86" x2="2962.24" y2="1827.06" style="stroke:#F0F0F0;stroke-width:9.72"/>
	<line x1="2962.24" y1="1794.66" x2="2962.24" y2="1729.86" style="stroke:#F0F0F0;stroke-width:9.72"/>
	<line x1="2962.24" y1="1697.46" x2="2962.24" y2="1632.66" style="stroke:#F0F0F0;stroke-width:9.72"/>
	<line x1="2962.24" y1="1600.26" x2="2962.24" y2="1535.46" style="stroke:#F0F0F0;stroke-width:9.72"/>
	<line x1="2962.24" y1="1503.06" x2="2962.24" y2="1438.26" style="stroke:#F0F0F0;stroke-width:9.72"/>
	<line x1="2962.24" y1="1405.86" x2="2962.24" y2="1341.06" style="stroke:#F0F0F0;stroke-width:9.72"/>
	<line x1="2962.24" y1="1308.66" x2="2962.24" y2="1243.86" style="stroke:#F0F0F0;stroke-width:9.72"/>
	<line x1="2962.24" y1="1211.46" x2="2962.24" y2="1146.66" style="stroke:#F0F0F0;stroke-width:9.72"/>
	<line x1="2962.24" y1="1114.26" x2="2962.24" y2="1049.46" style="stroke:#F0F0F0;stroke-width:9.72"/>
	<line x1="2962.24" y1="1017.06" x2="2962.24" y2="952.26" style="stroke:#F0F0F0;stroke-width:9.72"/>
	<line x1="2962.24" y1="919.86" x2="2962.24" y2="855.06" style="stroke:#F0F0F0;stroke-width:9.72"/>
	<line x1="2962.24" y1="822.66" x2="2962.24" y2="757.86" style="stroke:#F0F0F0;stroke-width:9.72"/>
	<line x1="2962.24" y1="725.46" x2="2962.24" y2="660.66" style="stroke:#F0F0F0;stroke-width:9.72"/>
	<line x1="2962.24" y1="628.26" x2="2962.24" y2="563.46" style="stroke:#F0F0F0;stroke-width:9.72"/>
	<line x1="2962.24" y1="531.06" x2="2962.24" y2="466.26" style="stroke:#F0F0F0;stroke-width:9.72"/>
	<line x1="2962.24" y1="433.86" x2="2962.24" y2="369.06" style="stroke:#F0F0F0;stroke-width:9.72"/>
	<line x1="2962.24" y1="336.66" x2="2962.24" y2="271.86" style="stroke:#F0F0F0;stroke-width:9.72"/>
	<line x1="2962.24" y1="239.46" x2="2962.24" y2="174.66" style="stroke:#F0F0F0;stroke-width:9.72"/>
	<line x1="2962.24" y1="142.26" x2="2962.24" y2="113.40" style="stroke:#F0F0F0;stroke-width:9.72"/>
	<rect x="853.37" y="2443.84" width="448.37" height="322.82" style="fill:#FF8C19;fill-opacity:0.40"/>
	<rect x="855.80" y="2446.27" width="443.51" height="317.96" style="fill:none;stroke:#5FAAFF;stroke-width:4.86"/>
	<rect x="1301.74" y="2121.19" width="448.54" height="645.47" style="fill:#FF8C19;fill-opacity:0.40"/>
	<rect x="1304.17" y="2123.62" width="443.68" height="640.61" style="fill:none;stroke:#5FAAFF;stroke-width:4.86"/>
	<rect x="1750.28" y="184.61" width="448.54" height="2582.04" style="fill:#FF8C19;fill-opacity:0.40"/>
	<rect x="1752.71" y="187.04" width="443.68" height="2577.18" style="fill:none;stroke:#5FAAFF;stroke-width:4.86"/>
	<rect x="2198.81" y="2121.19" width="448.54" height="645.47" style="fill:#FF8C19;fill-opacity:0.40"/>
	<rect x="2201.24" y="2123.62" width="443.68" height="640.61" style="fill:none;stroke:#5FAAFF;stroke-width:4.86"/>
	<rect x="2647.35" y="2121.19" width="448.54" height="645.47" style="fill:#FF8C19;fill-opacity:0.40"/>
	<rect x="2649.78" y="2123.62" width="443.68" height="640.61" style="fill:none;stroke:#5FAAFF;stroke-width:4.86"/>
	<path d=" M853.20 2679.58 L860.79 2676.21 L868.22 2672.66 L875.64 2669.12 L883.24 2665.58 L890.66 2661.69 L898.26 2657.81 L905.68 2653.76 L913.28 2649.71 L920.70 2645.49 L928.29 2641.11 L935.72 2636.55 L943.14 2631.99 L950.74 2627.10 L958.16 2622.21 L965.76 2617.31 L973.18 2612.08 L980.78 2606.68 L988.20 2601.28 L995.79 2595.71 L1003.22 2589.98 L1010.64 2584.07 L1018.24 2577.99 L1025.66 2571.75 L1033.26 2565.34 L1040.68 2558.93 L1048.28 2552.18 L1055.70 2545.26 L1063.29 2538.34 L1070.72 2531.08 L1078.14 2523.82 L1085.74 2516.23 L1093.16 2508.47 L1100.76 2500.71 L1108.18 2492.61 L1115.78 2484.34 L1123.20 2476.07 L1130.79 2467.46 L1138.22 2458.69 L1145.64 2449.74 L1153.24 2440.63 L1160.66 2431.35 L1168.26 2421.73 L1175.68 2412.11 L1183.28 2402.16 L1190.70 2392.20 L1198.29 2381.91 L1205.72 2371.44 L1213.31 2360.98 L1220.74 2350.18 L1228.16 2339.21 L1235.76 2327.91 L1243.18 2316.60 L1250.78 2305.13 L1258.20 2293.31 L1265.79 2281.50 L1273.22 2269.35 L1280.81 2257.03 L1288.24 2244.54 L1295.66 2232.06 L1303.26 2219.23 L1310.68 2206.24 L1318.28 2193.07 L1325.70 2179.74 L1333.29 2166.24 L1340.72 2152.57 L1348.31 2138.74 L1355.74 2124.73 L1363.16 2110.73 L1370.76 2096.38 L1378.18 2082.04 L1385.78 2067.36 L1393.20 2052.68 L1400.79 2037.83 L1408.22 2022.81 L1415.81 2007.62 L1423.24 1992.43 L1430.66 1977.08 L1438.26 1961.55 L1445.68 1946.03 L1453.28 1930.33 L1460.70 1914.47 L1468.29 1898.61 L1475.72 1882.58 L1483.31 1866.54 L1490.74 1850.34 L1498.16 1834.14 L1505.76 1817.94 L1513.18 1801.58 L1520.78 1785.21 L1528.20 1768.84 L1535.79 1752.30 L1543.22 1735.93 L1550.81 1719.39 L1558.24 1702.86 L1565.66 1686.32 L1573.26 1669.78 L1580.68 1653.24 L1588.28 1636.88 L1595.70 1620.34 L1603.29 1603.97 L1610.72 1587.60 L1618.31 1571.23 L1625.74 1554.86 L1633.16 1538.66 L1640.76 1522.63 L1648.18 1506.60 L1655.78 1490.57 L1663.20 1474.71 L1670.79 1459.01 L1678.22 1443.32 L1685.81 1427.96 L1693.24 1412.61 L1700.66 1397.42 L1708.26 1382.23 L1715.68 1367.38 L1723.28 1352.70 L1730.70 1338.19 L1738.29 1323.84 L1745.72 1309.67 L1753.31 1295.83 L1760.74 1281.99 L1768.33 1268.49 L1775.76 1255.33 L1783.18 1242.34 L1790.78 1229.51 L1798.20 1217.03 L1805.79 1204.88 L1813.22 1192.89 L1820.81 1181.25 L1828.24 1169.78 L1835.83 1158.64 L1843.26 1148.01 L1850.68 1137.54 L1858.28 1127.25 L1865.70 1117.46 L1873.29 1108.01 L1880.72 1098.90 L1888.31 1089.96 L1895.74 1081.52 L1903.33 1073.42 L1910.76 1065.66 L1918.18 1058.40 L1925.78 1051.31 L1933.20 1044.73 L1940.79 1038.49 L1948.22 1032.58 L1955.81 1027.18 L1963.24 1022.12 L1970.83 1017.39 L1978.26 1013.18 L1985.68 1009.29 L1993.28 1005.75 L2000.70 1002.71 L2008.29 1000.18 L2015.72 997.99 L2023.31 996.13 L2030.74 994.78 L2038.33 993.77 L2045.76 993.09 L2053.18 993.09 L2060.78 993.26 L2068.20 993.94 L2075.79 995.12 L2083.22 996.64 L2090.81 998.66 L2098.24 1001.03 L2105.83 1003.72 L2113.26 1006.93 L2120.68 1010.47 L2128.28 1014.53 L2135.70 1018.91 L2143.29 1023.64 L2150.72 1028.87 L2158.31 1034.44 L2165.74 1040.51 L2173.33 1046.76 L2180.76 1053.51 L2188.18 1060.76 L2195.78 1068.19 L2203.20 1076.12 L2210.79 1084.22 L2218.22 1092.82 L2225.81 1101.77 L2233.24 1111.05 L2240.83 1120.67 L2248.26 1130.63 L2255.68 1140.75 L2263.28 1151.38 L2270.70 1162.18 L2278.29 1173.49 L2285.72 1184.96 L2293.31 1196.78 L2300.74 1208.76 L2308.33 1221.08 L2315.76 1233.56 L2323.18 1246.56 L2330.78 1259.55 L2338.20 1272.88 L2345.79 1286.38 L2353.22 1300.22 L2360.81 1314.23 L2368.24 1328.40 L2375.83 1342.91 L2383.26 1357.43 L2390.85 1372.11 L2398.28 1387.13 L2405.70 1402.14 L2413.29 1417.50 L2420.72 1432.86 L2428.31 1448.38 L2435.74 1464.08 L2443.33 1479.77 L2450.76 1495.80 L2458.35 1511.66 L2465.78 1527.69 L2473.20 1543.89 L2480.79 1560.09 L2488.22 1576.46 L2495.81 1592.83 L2503.24 1609.20 L2510.83 1625.74 L2518.26 1642.11 L2525.85 1658.64 L2533.28 1675.18 L2540.70 1691.72 L2548.29 1708.26 L2555.72 1724.63 L2563.31 1741.16 L2570.74 1757.70 L2578.33 1774.07 L2585.76 1790.44 L2593.35 1806.81 L2600.78 1823.18 L2608.20 1839.38 L2615.79 1855.58 L2623.22 1871.78 L2630.81 1887.81 L2638.24 1903.67 L2645.83 1919.53 L2653.26 1935.39 L2660.85 1951.09 L2668.28 1966.61 L2675.70 1981.97 L2683.29 1997.33 L2690.72 2012.51 L2698.31 2027.70 L2705.74 2042.55 L2713.33 2057.40 L2720.76 2072.08 L2728.35 2086.59 L2735.78 2100.94 L2743.20 2115.28 L2750.79 2129.29 L2758.22 2143.29 L2765.81 2156.96 L2773.24 2170.63 L2780.83 2184.13 L2788.26 2197.29 L2795.85 2210.46 L2803.28 2223.28 L2810.70 2236.11 L2818.29 2248.59 L2825.72 2261.08 L2833.31 2273.23 L2840.74 2285.21 L2848.33 2297.19 L2855.76 2308.84 L2863.35 2320.31 L2870.78 2331.62 L2878.20 2342.76 L2885.79 2353.56 L2893.22 2364.36 L2900.81 2374.82 L2908.24 2385.28 L2915.83 2395.41 L2923.26 2405.36 L2930.85 2415.15 L2938.28 2424.77 L2945.87 2434.22 L2953.29 2443.50 L2960.72 2452.61 L2968.31 2461.56 L2975.74 2470.16 L2983.33 2478.77 L2990.76 2487.04 L2998.35 2495.31 L3005.78 2503.24 L3013.37 2511.00 L3020.79 2518.59 L3028.22 2526.19 L3035.81 2533.44 L3043.24 2540.53 L3050.83 2547.62 L3058.26 2554.37 L3065.85 2560.95 L3073.28 2567.53 L3080.87 2573.78 L3088.29 2580.02 L3095.72 2585.93" stroke-linejoin="round" style="fill:none;stroke:#000000;stroke-width:9.72"/>
	<rect x="943.31" y="2461.56" width="474.53" height="305.10" style="fill:#198DFF;fill-opacity:0.50"/>
	<rect x="945.74" y="2463.99" width="469.67" height="300.24" style="fill:none;stroke:#5FAAFF;stroke-width:4.86"/>
	<rect x="1417.84" y="2003.91" width="474.52" height="762.75" style="fill:#198DFF;fill-opacity:0.50"/>
	<rect x="1420.27" y="2006.34" width="469.66" height="757.89" style="fill:none;stroke:#5FAAFF;stroke-width:4.86"/>
	<rect x="1892.36" y="1698.81" width="474.52" height="1067.85" style="fill:#198DFF;fill-opacity:0.50"/>
	<rect x="1894.79" y="1701.24" width="469.66" height="1062.99" style="fill:none;stroke:#5FAAFF;stroke-width:4.86"/>
	<rect x="2366.89" y="783.68" width="474.53" height="1982.98" style="fill:#198DFF;fill-opacity:0.50"/>
	<rect x="2369.32" y="786.11" width="469.67" height="1978.12" style="fill:none;stroke:#5FAAFF;stroke-width:4.86"/>
	<rect x="2841.41" y="2309.01" width="474.53" height="457.65" style="fill:#198DFF;fill-opacity:0.50"/>
	<rect x="2843.84" y="2311.44" width="469.67" height="452.79" style="fill:none;stroke:#5FAAFF;stroke-width:4.86"/>
	<line x1="557.72" y1="2766.66" x2="557.72" y2="113.40" style="stroke:#000000;stroke-width:6.48"/>
	<line x1="557.72" y1="2766.66" x2="512.83" y2="2766.66" style="stroke:#000000;stroke-width:6.48"/>
	<text x="490.22" y="2806.09" style="font-family:'Helvetica';font-size:112.56px;fill:#000000" text-anchor="end">0</text>
	<line x1="557.72" y1="2133.51" x2="512.83" y2="2133.51" style="stroke:#000000;stroke-width:6.48"/>
	<text x="490.22" y="2172.94" style="font-family:'Helvetica';font-size:112.56px;fill:#000000" text-anchor="end">.01</text>
	<line x1="557.72" y1="1500.36" x2="512.83" y2="1500.36" style="stroke:#000000;stroke-width:6.48"/>
	<text x="490.22" y="1539.79" style="font-family:'Helvetica';font-size:112.56px;fill:#000000" text-anchor="end">.02</text>
	<line x1="557.72" y1="867.21" x2="512.83" y2="867.21" style="stroke:#000000;stroke-width:6.48"/>
	<text x="490.22" y="906.64" style="font-family:'Helvetica';font-size:112.56px;fill:#000000" text-anchor="end">.03</text>
	<line x1="557.72" y1="234.06" x2="512.83" y2="234.06" style="stroke:#000000;stroke-width:6.48"/>
	<text x="490.22" y="273.49" style="font-family:'Helvetica';font-size:112.56px;fill:#000000" text-anchor="end">.04</text>
	<text x="214.55" y="1439.94" style="font-family:'Helvetica';font-size:112.56px;fill:#000000" transform="rotate(-90 214.55,1439.94)" text-anchor="middle">Density</text>
	<line x1="557.72" y1="2766.66" x2="3387.15" y2="2766.66" style="stroke:#000000;stroke-width:6.48"/>
	<line x1="904.50" y1="2766.66" x2="904.50" y2="2811.54" style="stroke:#000000;stroke-width:6.48"/>
	<text x="904.50" y="2912.86" style="font-family:'Helvetica';font-size:112.56px;fill:#000000" text-anchor="middle">20</text>
	<line x1="1590.47" y1="2766.66" x2="1590.47" y2="2811.54" style="stroke:#000000;stroke-width:6.48"/>
	<text x="1590.47" y="2912.86" style="font-family:'Helvetica';font-size:112.56px;fill:#000000" text-anchor="middle">40</text>
	<line x1="2276.27" y1="2766.66" x2="2276.27" y2="2811.54" style="stroke:#000000;stroke-width:6.48"/>
	<text x="2276.27" y="2912.86" style="font-family:'Helvetica';font-size:112.56px;fill:#000000" text-anchor="middle">60</text>
	<line x1="2962.24" y1="2766.66" x2="2962.24" y2="2811.54" style="stroke:#000000;stroke-width:6.48"/>
	<text x="2962.24" y="2912.86" style="font-family:'Helvetica';font-size:112.56px;fill:#000000" text-anchor="middle">80</text>
	<text x="1972.52" y="3070.31" style="font-family:'Helvetica';font-size:112.56px;fill:#000000" text-anchor="middle">age</text>
	<rect x="3425.96" y="1177.71" width="1821.83" height="524.64" style="fill:#FFFFFF"/>
	<rect x="3429.20" y="1180.95" width="1815.35" height="518.16" style="fill:none;stroke:#FFFFFF;stroke-width:6.48"/>
	<rect x="3474.56" y="1226.31" width="259.20" height="112.39" style="fill:#FF8C19;fill-opacity:0.40"/>
	<rect x="3476.99" y="1228.74" width="254.34" height="107.53" style="fill:none;stroke:#5FAAFF;stroke-width:4.86"/>
	<line x1="3474.56" y1="1439.94" x2="3733.76" y2="1439.94" style="stroke:#000000;stroke-width:9.72"/>
	<rect x="3474.56" y="1541.19" width="259.20" height="112.56" style="fill:#198DFF;fill-opacity:0.50"/>
	<rect x="3476.99" y="1543.62" width="254.34" height="107.70" style="fill:none;stroke:#5FAAFF;stroke-width:4.86"/>
	<text x="3801.26" y="1321.94" style="font-family:'Helvetica';font-size:112.56px;fill:#000000">Sampled from Normal</text>
	<text x="3801.26" y="1479.38" style="font-family:'Helvetica';font-size:112.56px;fill:#000000">Theoretical Normal</text>
	<text x="3801.26" y="1636.99" style="font-family:'Helvetica';font-size:112.56px;fill:#000000">Sampled from t-distribution</text>
</svg>
